<svg xmlns="http://www.w3.org/2000/svg" width="95.563" height="107.334" viewBox="0 0 95.563 107.334">
  <g id="Group_14" data-name="Group 14" transform="translate(-111.94 -316.603)">
    <path id="Path_24" data-name="Path 24" d="M528.1,409.043c.419,7.89.77,15.479,1.258,23.059a60.756,60.756,0,0,0,1.028,6.055c.451,2.707-1,4.67-3.744,4.892-4.94.4-9.884.845-14.834,1-3.816.123-5.194-1.271-5.438-5.016-.341-5.22-.556-10.447-.871-15.669-.263-4.37-.593-8.736-.906-13.276-1.094,0-1.975-.028-2.854.006-2.305.088-4.106-1.19-4.148-3.505-.121-6.656-.64-13.391.159-19.954a33.389,33.389,0,0,1,9.616-19.671c2.373-2.4,5.479-3,8.491-3.871,1.489-.43,3.081-1.086,4.538-.911a27.674,27.674,0,0,1,6.48,1.839,37.14,37.14,0,0,1,5.4,2.709,6.566,6.566,0,0,1,3.28,5.82c.3,6.708.715,13.411,1.133,20.112.227,3.636.671,7.26.8,10.9.136,3.751-1.541,5.364-5.32,5.475C531.1,409.069,530.019,409.043,528.1,409.043Z" transform="translate(-385.378 -20.212)" fill="#f6dcdb"/>
    <path id="Path_25" data-name="Path 25" d="M567.572,444.08c-3.74.5-5.833-1.774-6.188-5.822-.624-7.14-1.727-14.24-2.7-21.348-.2-1.464-.264-3.5-1.186-4.159-.941-.668-2.861.065-4.354.142-1.164.06-2.332.1-3.5.069-4.035-.1-6.327-3.263-4.932-7.065,1.606-4.378,3.586-8.621,5.143-13.015,1.7-4.8,3.2-9.678,4.613-14.571,1.867-6.449,5.636-11.115,12.142-13.155,3.783-1.186,9.36,2.106,11.713,5.464,5.175,7.388,7.717,15.971,10.988,24.221,1.1,2.77,2.038,5.6,3.152,8.365,1.437,3.566-.968,6.419-5.79,6.7-2.494.145-4.995.238-7.492.23-1.323-.005-1.774.55-1.758,1.782a85.189,85.189,0,0,0,1.658,17.7c.85,3.81,1.926,8.4-1.433,12.023a3.716,3.716,0,0,1-1.747,1.25C573.144,443.379,570.353,443.7,567.572,444.08Z" transform="translate(-385.378 -20.212)" fill="#f6dcdb"/>
    <path id="Path_26" data-name="Path 26" d="M570.548,339.794a11.633,11.633,0,0,1,11.96,11.8c.071,4.394-4,8.392-7.455,9.2-5.97,1.4-11.183-.48-15.335-5.089-1.787-1.983-1.556-4.37-.995-6.579C560.443,342.351,562.658,339.869,570.548,339.794Z" transform="translate(-385.378 -20.212)" fill="#f6dcdb"/>
    <path id="Path_27" data-name="Path 27" d="M507.447,347.144c-.04-6.111,6.343-11.654,12.128-10.049,8.171,2.266,11.883,10.377,7.531,17.955-3.213,5.593-8.621,4.289-13.567,1.477a24.454,24.454,0,0,1-2.566-1.79C508.381,352.785,507.471,350.8,507.447,347.144Z" transform="translate(-385.378 -20.212)" fill="#f6dcdb"/>
  </g>
</svg>
