<svg xmlns="http://www.w3.org/2000/svg" width="192" height="166.306" viewBox="0 0 192 166.306">
  <g id="Group_24" data-name="Group 24" transform="translate(-416 -2586)">
    <g id="Group_4" data-name="Group 4" transform="translate(317.393 2129.221)">
      <path id="Path_11" data-name="Path 11" d="M196.677,456.8a153.271,153.271,0,0,1,39.863,5.433c10.117,2.759,18.329,8.615,26,15.437.7.621,1.389,1.247,2.1,1.855,4.022,3.459,8.077,6.669,10.254,11.967,1.565,3.806,4.755,6.941,7.216,10.378,2.175,3.04,3.682,6.246,3.05,10.171a6.746,6.746,0,0,0,.588,2.929c2.895,8.813,5.085,17.677,4.845,27.123-.33,13.062-4.81,24.446-12.523,34.76-3.86,5.162-7.374,10.627-11.614,15.456-8.453,9.63-19.1,16.444-30.465,22.15-9.194,4.617-19.01,6.937-29.22,8.169-6.027.726-11.934.383-17.927.354-8.722-.043-16.18-3.274-23.646-7.025-6.652-3.344-13.5-6.33-19.974-9.981a75.044,75.044,0,0,1-10.953-8.183c-11.033-9.245-18.294-21.455-25.993-33.331-4.07-6.278-5.159-13.505-7.342-20.423-2.44-7.728-2.715-15.426-1.94-23.361,2.223-22.761,13.924-39.4,33.1-51.027,8.049-4.879,17.247-6.981,26.368-8.979A162.092,162.092,0,0,1,196.677,456.8Zm-2.084,137.786.05.625c7.972-1.07,16.05-1.643,23.894-3.311,16.548-3.519,30.822-10.771,39.67-26.211,4.52-7.888,8.606-15.824,8-25.29-.42-6.518-.8-13.041-1.3-19.552-.4-5.2-1.244-10.337-4.526-14.623a59.387,59.387,0,0,0-19.16-16.828c-7.579-4.036-15.911-5.678-24.107-7.828-10.053-2.637-20.17-4.434-30.541-2.675-10.024,1.7-20.028,3.575-29.961,5.734-5.709,1.24-11.286,3.7-14.7,8.51a165.211,165.211,0,0,0-12.242,20.438c-3.727,7.283-2.979,15.32-2.417,23.229a28.664,28.664,0,0,0,3.882,12.224c7.519,13.376,17.729,24.383,29.55,33.981C170.537,591,181.781,595.116,194.593,594.583Z" transform="translate(0 0)" fill="#f6dcdb"/>
      <path id="Path_12" data-name="Path 12" d="M167.613,518.47c-.984-7.5-1.912-14.624-2.852-21.743-.144-1.092-.394-2.175-.49-3.271-.38-4.317,2.275-6.621,6.423-7.558,5.1-1.15,9.878.672,14.8.435a10.975,10.975,0,0,0,4.329-1.088c5.264-2.672,10.006.194,10.217,6.11.293,8.218.751,16.43,1.232,24.64.2,3.493.318,3.35,3.646,3.5,5.338.234,10.681.526,15.993,1.062,4.916.5,7.348,4.915,4.751,9.042a72.351,72.351,0,0,1-7.658,9.424q-11.293,12.6-22.751,25.049c-3.241,3.535-9.61,3.489-13.884-.052-1.3-1.079-2.393-2.415-3.69-3.5-2.979-2.5-6.188-4.746-9.008-7.41-4.415-4.173-9.507-8.05-12.553-13.112a38.567,38.567,0,0,0-8-9.145,8.14,8.14,0,0,0-1.649-1.14,5.428,5.428,0,0,1-3.156-6.479,6.049,6.049,0,0,1,5.218-4.82c1.855-.116,3.727.053,5.59.058C158.49,518.48,162.857,518.47,167.613,518.47Z" transform="translate(14.283 8.803)" fill="#f6dcdb"/>
    </g>
  </g>
</svg>
