<svg xmlns="http://www.w3.org/2000/svg" width="184.8" height="184.163" viewBox="0 0 184.8 184.163">
  <g id="Group_23" data-name="Group 23" transform="translate(-199 -2586)">
    <g id="Group_20" data-name="Group 20">
      <g id="Group_5" data-name="Group 5" transform="translate(-660.406 2003.264)">
        <path id="Path_13" data-name="Path 13" d="M950.61,582.736c6.583,1.155,13.224,2.663,19.949,3.422,10.382,1.172,19.3,5.978,28.261,10.675,10.112,5.3,19.655,11.4,26.521,20.912a55.081,55.081,0,0,0,5.424,5.851c7.94,8.156,11.495,18.283,12.787,29.279.391,3.325-.543,6.783-.5,10.176.065,5.377.432,10.751.687,16.125.157,3.32.667,6.666.384,9.946-.152,1.755-1.617,3.411-2.552,5.076-.31.551-.914.939-1.215,1.493-3.724,6.836-7.4,13.7-11.126,20.533-2.181,4-3.948,8.35-6.777,11.832a251.439,251.439,0,0,1-17.815,19.78c-5.7,5.666-13.473,7.892-20.8,10.709-1.854.712-3.783,1.249-5.586,2.066-5.006,2.268-10.323,2.955-15.715,3.373a3.6,3.6,0,0,0-2.068.638c-2.514,2.363-5.436,2.623-8.607,1.963-8.2-1.706-16.523-2.99-24.586-5.209-10.007-2.754-19.9-6.207-28.537-12.12-4.613-3.158-8.471-7.419-12.669-11.182a.883.883,0,0,1-.172-.18c-3.578-5.868-6.94-11.882-10.788-17.567-4.238-6.261-5.148-13.5-7.025-20.508-2.1-7.84-4.769-15.529-6.813-23.382a53.525,53.525,0,0,1,4.526-39.385c4.018-7.748,7.754-15.759,13.76-22.087,4.638-4.886,10.3-8.854,15.765-12.889a90.218,90.218,0,0,1,33.912-15.66C936.171,584.847,943.267,583.976,950.61,582.736ZM952.7,749.6c4.113,1.569,7.877-.262,11.73-2.26,4.42-2.291,8.96-4.377,13.561-6.279,2.74-1.133,5.933-1.3,8.511-2.673a35.5,35.5,0,0,0,14.992-14.851c4.119-7.841,7.185-16.2,12.823-23.268,1.782-2.234,2.4-5.562,3.044-8.5,1.076-4.94,1.723-9.973,2.585-14.961.594-3.436,1.806-6.87,1.756-10.291a43.533,43.533,0,0,0-6.222-21.306c-2.572-4.433-5.589-8.617-8.551-12.811a14.268,14.268,0,0,0-4.015-4.219c-5.793-3.384-11.661-6.674-17.689-9.612a58.766,58.766,0,0,0-22.247-6.038c-8.133-.5-16.1.868-23.948,2.774-7.568,1.839-15.083,3.932-22.526,6.224-3.279,1.01-6.791,2.213-9.377,4.331a161.252,161.252,0,0,0-16.2,15.105,22.286,22.286,0,0,0-5.756,19.692c3.718,19.9,10.93,38.739,19.113,57.111a64.267,64.267,0,0,0,11.587,17.626A33.831,33.831,0,0,0,931.69,745.5C938.508,747.48,945.142,749.8,952.7,749.6Z" fill="#f6dcdb"/>
        <path id="Path_14" data-name="Path 14" d="M932.657,672.435c-4.713-.216-9.678-.449-14.642-.671-2.541-.113-5.006-.371-7.517.817-2.224,1.053-4.477.052-6.068-1.716-1.684-1.872-2.283-4.363-.955-6.49a68.87,68.87,0,0,1,6.738-8.877,112.576,112.576,0,0,1,8.57-8.729c3.495-3.2,5.891-7.1,8.154-11.188.985-1.779,2.735-3.137,4.157-4.669,1.128-1.216,2.352-2.349,3.416-3.618,5.016-5.984,10.186-6.678,16.506-2a44.15,44.15,0,0,1,4.943,4.53c6.807,6.87,14.89,12.054,22.808,17.473,4.835,3.31,9.89,6.431,14.191,10.355,5,4.561,4.7,11.277-.016,15.04a15.885,15.885,0,0,1-11.169,3.507c-3.4-.213-6.819-.406-10.189-.887-2.2-.315-2.95.613-3.411,2.52-1.241,5.14-.611,10.242.064,15.362.641,4.853,1.6,9.7,1.779,14.57.388,10.485-6.489,16.128-16.841,14.256-3.48-.629-7.054-.866-10.459-1.761-8.809-2.314-10.383-6.274-10.673-13.375-.234-5.733-.132-11.485-.024-17.225C932.126,684.014,932.429,678.372,932.657,672.435Z" fill="#f6dcdb"/>
      </g>
    </g>
  </g>
</svg>
