<svg xmlns="http://www.w3.org/2000/svg" width="169" height="182.691" viewBox="0 0 169 182.691">
  <g id="Group_21" data-name="Group 21" transform="translate(-173.722 -1381.436)">
    <g id="Group_18" data-name="Group 18">
      <g id="Group_2" data-name="Group 2" transform="translate(-479.841 1031.078)">
        <path id="Path_3" data-name="Path 3" d="M742.33,351.685c14.93-1.1,27.813,4.461,40.814,11.071,15.968,8.12,24.489,21.512,31.315,37.109,6.195,14.156,9.163,28.719,7.763,43.98-1.671,18.248-6.647,35.441-18.236,50.206-3.5,4.453-6.618,9.208-9.74,13.937-5.371,8.132-13.276,12.583-22.084,16.014-10.293,4.009-20.269,9.576-31.645,9.006-6.153-.309-12.308-2.332-18.273-4.192-8.226-2.566-17.034-4.484-24.19-8.935a82.439,82.439,0,0,1-20.419-18.68,144.732,144.732,0,0,1-16.325-26.806c-2.987-6.155-4.234-13.309-5.381-20.163a191.253,191.253,0,0,1-2.317-23.688c-.667-16.173,5.761-30.2,14.79-42.981,10.719-15.178,25.769-25.146,43.081-31.013,9.789-3.316,20.4-4.209,30.637-6.193Zm4.532,165.247c10.062,1.381,19.468-4.952,27.311-12.093,8.112-7.386,14.644-16.748,20.782-25.97,4-6.015,6.7-13.13,8.814-20.1,1.662-5.473,1.016-11.611,2.33-17.234,2.691-11.507,2.029-22.161-4.536-32.433-4.288-6.71-6.735-14.7-11.492-20.985-6.881-9.094-16.78-13.989-28.076-16.452-13.33-2.905-26.214-3.644-38.866,2.738-5.087,2.568-10.65,4.182-15.9,6.455-4.192,1.817-9.2,3.043-12.181,6.138-13.749,14.3-18.965,31.966-18.231,51.53.109,2.9,1.289,5.763,1.356,8.658.388,16.53,6.251,30.819,16.895,43.371C708.207,506.042,723.957,516.393,746.862,516.931Z" transform="translate(0 0)" fill="#f6dcdb"/>
        <path id="Path_4" data-name="Path 4" d="M688.1,406.823c3.064,2.052,5.782,3.216,7.6,5.2,8.076,8.816,17.4,7.913,26.958,3.55a64.409,64.409,0,0,0,11.664-7.521c4.47-3.371,10.474-2.722,13.017,2.146.611,1.17.071,3.65-.851,4.8-6.647,8.272-15.626,13.422-24.931,18.131-14.7,7.44-25.822.987-36.063-9.081a14.323,14.323,0,0,1-2.968-3.291c-1.156-2.271-3.348-5.6-2.54-6.954C681.621,411.062,684.975,409.345,688.1,406.823Z" transform="translate(28.494 60.357)" fill="#f6dcdb"/>
        <path id="Path_5" data-name="Path 5" d="M672.858,392.775c1.141-7.942,6.353-14.823,13.326-16.544,3.556-.878,14.329,3.379,16.477,6.509,3.512,5.118,3.5,10.408-.686,16.029a54.226,54.226,0,0,1-9.2,9.987c-5.729,4.6-9.58,2.864-13.993-2.378C675.732,402.751,674.76,397.372,672.858,392.775Z" transform="translate(20.949 27.964)" fill="#f6dcdb"/>
        <path id="Path_6" data-name="Path 6" d="M733.642,390.439c.868,8.754-10.445,18.284-15.9,20.111-1.683.565-4.286-.578-6.092-1.6-6.66-3.773-8.476-10.773-8.727-17.316-.244-6.374,3.535-11.857,10.093-14.277C721.555,374.2,735.379,379.518,733.642,390.439Z" transform="translate(53.575 28.335)" fill="#f6dcdb"/>
      </g>
    </g>
  </g>
</svg>
