<svg xmlns="http://www.w3.org/2000/svg" width="22.072" height="21.714" viewBox="0 0 22.072 21.714">
  <path id="Path_32" data-name="Path 32" d="M391.54,551.452h-3c-.045.489-.127,1.034-.141,1.582-.039,1.5-.049,2.991-.072,4.487a2.562,2.562,0,0,1-.019.352c-.06.382-.195.521-.58.558-.3.028-.6.034-.9.034-1.56,0-3.12,0-4.68-.011-.452,0-.5-.056-.5-.5.012-.64.1-1.28.073-1.918-.039-1.141-.16-2.28-.2-3.422-.034-1.033,0-2.069,0-3.1v-.375a9.036,9.036,0,0,0-.906-.107c-.914-.02-1.347-.7-.892-1.5a8.729,8.729,0,0,1,.887-1.163c.311-.379.629-.752.966-1.107,1.227-1.293,2.422-2.62,3.708-3.853,1.356-1.3,2.8-2.508,4.208-3.752a2.63,2.63,0,0,1,1.525-.577.6.6,0,0,1,.354.123c.918.623,1.829,1.257,2.746,1.882a13.065,13.065,0,0,1,2.269,1.968c.773.841,1.6,1.633,2.366,2.481.406.449.722.977,1.094,1.459.5.642,1.021,1.261,1.5,1.914a1.613,1.613,0,0,1,.254.71c.073.519-.231.9-.855,1.112-.321.106-.656.17-.98.252,0,.651-.012,1.311,0,1.97q.06,2.628.141,5.255c.01.319.064.637.078.956a1.329,1.329,0,0,1-1.323,1.581,10.36,10.36,0,0,1-1.247.048c-1.378-.007-2.756-.024-4.135-.038-.139,0-.278,0-.416-.008-.573-.032-.781-.237-.821-.807-.1-1.447-.3-2.885-.268-4.345A15.024,15.024,0,0,0,391.54,551.452Z" transform="translate(-379.548 -537.068)" fill="#cbddf2"/>
</svg>
