<svg xmlns="http://www.w3.org/2000/svg" width="75.622" height="107.503" viewBox="0 0 75.622 107.503">
  <g id="Group_9" data-name="Group 9" transform="translate(-116 -515)">
    <path id="Path_22" data-name="Path 22" d="M415.008,416.8c.455-.527.928-.847,1.076-1.279,3.718-10.852,10.894-18.391,21.343-23.13,6.124-2.777,12.421-2.793,18.843-2.4,2.222.136,3.044,1.49,2.624,3.642-.459,2.353-.7,4.747-1.152,7.1a37.865,37.865,0,0,1-6.7,15.58,123.034,123.034,0,0,1-25.185,24.962,13.955,13.955,0,0,1-7.153,2.372,42,42,0,0,1-10.395-.752,20.958,20.958,0,0,1-12.141-7.609,48.222,48.222,0,0,1-10.1-19.952c-1-4.21-1.9-8.457-2.576-12.731-.843-5.353,3.084-9.09,9.446-6.242,5.109,2.286,8.66,6.295,12.661,9.831,2.7,2.39,5.218,5,7.725,7.6A15.354,15.354,0,0,1,415.008,416.8Z" transform="translate(-267.378 178.788)" fill="#cbddf2"/>
    <path id="Path_23" data-name="Path 23" d="M402.946,353.721c0-1.306.077-2.47-.013-3.622-.469-6.01,2.911-10.018,7.5-12.8,3.632-2.2,7.578-1.094,10.1,3.726.939,1.791,1.8,3.627,2.845,5.352.21.345,1.119.444,1.669.374a61.6,61.6,0,0,1,6.432-.949,8.156,8.156,0,0,1,8.2,5.419c1.119,2.992,1,6.3-1.508,8.952-1.443,1.526-3.742,2.962-4,4.684-.236,1.6,1.918,3.447,2.682,5.324,1.124,2.763,2.857,5.457,2.229,8.641-.763,3.867-2.024,7.616-5.9,9.423a11.5,11.5,0,0,1-5.417.809c-2.3-.151-3.493.692-4.582,2.65a13.406,13.406,0,0,1-10.4,6.911c-3.278.437-5.5-1.443-7.2-4.05a5.784,5.784,0,0,1-.708-1.09c-.8-2.248-2.264-2.95-4.673-2.677-4.6.521-7.921-1.826-10.008-5.672-1.992-3.671-2.3-7.613.158-11.287a4.895,4.895,0,0,0,.048-5.762,13.559,13.559,0,0,1-1.71-7.039c-.125-3.871,3.151-6.86,6.077-8.225a6.6,6.6,0,0,1,6.744.574A5.3,5.3,0,0,0,402.946,353.721Zm16.767,15.458c.022-3.928-2.46-6.728-5.99-6.758-4.283-.036-6.51,1.955-6.618,5.666-.139,4.778,3.288,7.6,6.281,7.535A6.3,6.3,0,0,0,419.713,369.179Z" transform="translate(-267.378 178.788)" fill="#cbddf2"/>
  </g>
</svg>
