<svg xmlns="http://www.w3.org/2000/svg" width="86.757" height="104.383" viewBox="0 0 86.757 104.383">
  <path id="Path_28" data-name="Path 28" d="M709.8,518.176c2.557,5.966,4.3,12.02,7.746,17.362a17.248,17.248,0,0,0,8.931,6.727,4.073,4.073,0,0,0,1.183.126,10.739,10.739,0,0,1,3.066.189c4.992,1.877,9.3.22,13.652-2.133a8.854,8.854,0,0,1,8.478-.022c4.292,2.088,8.742,3.851,13.129,5.74,2.411,1.038,5.127,3.251,5.016,6.961a35.582,35.582,0,0,1-5.722,18.079c-.521.836-1.037,1.681-1.474,2.562a5.4,5.4,0,0,1-5.264,3.317,56.209,56.209,0,0,1-9.038-1.172c-6.371-1.381-12.892-2.444-18.977-4.667-5.854-2.137-12.164-3.776-16.862-8.334a39.824,39.824,0,0,0-6.232-4.618,32.866,32.866,0,0,1-11.106-11.524,122.213,122.213,0,0,1-9.568-22.028c-1.606-5.079-1.841-10.412-2.068-15.7-.258-6-.319-12.017-.439-18.026a14.806,14.806,0,0,1,1.821-7.611,24.3,24.3,0,0,0,1.52-4.57c.251-.812.406-1.657.688-2.457.964-2.744,2.8-4.071,5.683-3.566a53.969,53.969,0,0,1,7.185,2.1c3.323,1.075,6.625,2.215,9.93,3.342,1.862.635,3.74,1.236,5.565,1.965,2.851,1.139,4.38,3.43,5.189,6.285.024.086-.01.2.037.264,1.991,2.485,1.289,5.536,1.827,8.332a30.563,30.563,0,0,0,2.078,6.346c1.064,2.447.946,4.757-.8,6.751a30.3,30.3,0,0,1-9.7,6.883C713.434,515.989,711.693,517.094,709.8,518.176Z" transform="translate(-684.244 -472.708)" fill="#614b67"/>
</svg>
