<svg xmlns="http://www.w3.org/2000/svg" width="169.278" height="182.992" viewBox="0 0 169.278 182.992">
  <g id="Group_22" data-name="Group 22" transform="translate(-406.722 -1381.008)">
    <g id="Group_19" data-name="Group 19">
      <g id="Group_6" data-name="Group 6" transform="translate(447.032 1434.817)">
        <path id="Path_8" data-name="Path 8" d="M860.268,434.456c-2.944-2.231-5.593-3.554-7.293-5.647-7.559-9.291-16.937-8.933-26.748-5.131a64.47,64.47,0,0,0-12.1,6.834c-4.667,3.109-10.634,2.106-12.89-2.91-.541-1.206.144-3.654,1.132-4.747,7.133-7.88,16.413-12.5,25.994-16.665,15.134-6.575,25.876.531,35.526,11.2a14.312,14.312,0,0,1,2.774,3.466c1.022,2.338,3.019,5.8,2.131,7.1C866.989,430.6,863.535,432.118,860.268,434.456Z" transform="translate(-787.038 -341.072)" fill="#f6dcdb"/>
        <path id="Path_9" data-name="Path 9" d="M794.339,390.388c1.143-7.956,6.364-14.848,13.348-16.571,3.562-.88,14.353,3.387,16.5,6.522,3.518,5.127,3.51,10.425-.687,16.053a54.328,54.328,0,0,1-9.211,10c-5.739,4.6-9.6,2.868-14.016-2.382C797.218,400.381,796.244,394.993,794.339,390.388Z" transform="translate(-794.339 -373.7)" fill="#f6dcdb"/>
        <path id="Path_10" data-name="Path 10" d="M855.173,388.05c.867,8.766-10.463,18.312-15.93,20.144-1.686.564-4.293-.581-6.1-1.607-6.671-3.779-8.49-10.791-8.741-17.344-.244-6.382,3.541-11.877,10.109-14.3C843.066,371.786,856.913,377.111,855.173,388.05Z" transform="translate(-761.61 -373.328)" fill="#f6dcdb"/>
      </g>
      <g id="Group_17" data-name="Group 17" transform="translate(173.722 1381.008)">
        <path id="Path_7" data-name="Path 7" d="M863.957,349.273c14.954-1.1,27.859,4.469,40.881,11.089,15.995,8.133,24.529,21.548,31.367,37.171,6.205,14.179,9.178,28.766,7.776,44.052-1.673,18.278-6.658,35.5-18.268,50.289-3.5,4.46-6.627,9.224-9.754,13.96-5.38,8.148-13.3,12.6-22.12,16.041-10.31,4.018-20.3,9.594-31.7,9.021-6.163-.307-12.328-2.336-18.3-4.2-8.24-2.57-17.062-4.492-24.23-8.95a82.6,82.6,0,0,1-20.453-18.709A145.056,145.056,0,0,1,782.8,472.185c-2.992-6.165-4.241-13.331-5.39-20.2a191.537,191.537,0,0,1-2.321-23.727c-.668-16.2,5.77-30.245,14.814-43.05,10.736-15.2,25.812-25.189,43.152-31.064,9.8-3.324,20.43-4.218,30.688-6.2Zm4.54,165.519c10.078,1.385,19.5-4.96,27.356-12.113,8.125-7.4,14.668-16.776,20.817-26.012,4.011-6.025,6.706-13.151,8.829-20.138,1.665-5.482,1.018-11.63,2.334-17.263,2.695-11.526,2.033-22.2-4.544-32.487-4.3-6.721-6.746-14.72-11.511-21.019-6.892-9.109-16.81-14.012-28.122-16.479-13.352-2.91-26.257-3.65-38.93,2.743-5.1,2.572-10.667,4.189-15.924,6.466-4.2,1.82-9.22,3.048-12.2,6.148-13.772,14.323-19,32.019-18.262,51.615.109,2.9,1.289,5.772,1.358,8.672.389,16.557,6.261,30.87,16.922,43.442C829.778,503.884,845.553,514.253,868.5,514.792Z" transform="translate(-542.044 -347.944)" fill="#f6dcdb"/>
      </g>
    </g>
  </g>
</svg>
