<svg xmlns="http://www.w3.org/2000/svg" width="17" height="19.63" viewBox="0 0 17 19.63">
  <g id="Group_25" data-name="Group 25" transform="translate(-375 -944)">
    <g id="Component" transform="translate(375 944)">
      <path id="Path_29" data-name="Path 29" d="M1027.68,221.75c-.384-.151-.784-.272-1.15-.459a10.078,10.078,0,0,1-2.75-2.064c-.865-.916-1.756-1.81-2.592-2.752-.529-.6-.989-1.254-1.461-1.9a1.308,1.308,0,0,1,.113-1.93,6.779,6.779,0,0,1,.929-.846,1.152,1.152,0,0,1,1.757.187c.627.694,1.213,1.425,1.839,2.118.489.541,1.017,1.046,1.519,1.575.4.42.786.853,1.176,1.281.064.07.115.152.177.222.412.462.6.452.994-.026.917-1.122,1.859-2.225,2.751-3.366.574-.734,1.04-1.556,1.628-2.278a1.5,1.5,0,0,1,2.374-.2c.1.077.188.156.279.237a1.367,1.367,0,0,1,.147,2.213c-1.241,1.521-2.445,3.072-3.682,4.6-.622.768-1.256,1.53-1.934,2.248A3.361,3.361,0,0,1,1027.68,221.75Z" transform="translate(-1018.904 -210.825)" fill="#f6dcdb"/>
      <path id="Path_30" data-name="Path 30" d="M1027.7,240.627a8.129,8.129,0,0,1-1.334-.642c-1.826-1.337-3.622-2.715-5.436-4.07-.412-.308-.879-.547-1.266-.881a6.343,6.343,0,0,1-1.059-1.141.907.907,0,0,1,.124-1.2,12.2,12.2,0,0,1,1.463-1.278,1.034,1.034,0,0,1,1.253.137c.6.439,1.177.912,1.74,1.4,1.067.919,2.118,1.856,3.176,2.785.02.018.043.033.065.049.854.641,1.105.631,1.8-.175,1.155-1.344,2.289-2.706,3.432-4.06a2.046,2.046,0,0,1,1.718-.756,1.393,1.393,0,0,1,1.323,1.712,3.23,3.23,0,0,1-.458,1.074c-.536.762-1.136,1.479-1.7,2.223-.724.962-1.419,1.948-2.16,2.9a6.915,6.915,0,0,1-1.249,1.313A6.584,6.584,0,0,1,1027.7,240.627Z" transform="translate(-1018.436 -220.997)" fill="#f6dcdb"/>
    </g>
  </g>
</svg>
